<svg xmlns="http://www.w3.org/2000/svg" xmlns:xlink="http://www.w3.org/1999/xlink" width="800" zoomAndPan="magnify" viewBox="0 0 600 599.999999" height="800" preserveAspectRatio="xMidYMid meet" version="1.0"><defs><clipPath id="336613f2a2"><path d="M 200 158 L 568.945312 158 L 568.945312 529 L 200 529 Z M 200 158 " clip-rule="nonzero"/></clipPath><clipPath id="4e5c9e8de2"><path d="M 17.695312 71 L 388 71 L 388 438 L 17.695312 438 Z M 17.695312 71 " clip-rule="nonzero"/></clipPath></defs><path fill="#808285" d="M 202.667969 527.082031 C 202.652344 527.082031 202.640625 527.082031 202.628906 527.082031 C 193.78125 527.058594 181.972656 514.71875 170.558594 502.785156 C 165.574219 497.578125 160.871094 492.660156 156.839844 489.269531 C 152.140625 485.3125 147.273438 482.691406 142.566406 480.15625 C 131.25 474.054688 121.472656 468.789062 121.972656 448.101562 C 122.488281 426.851562 133.371094 404.445312 151.09375 388.15625 C 166.554688 373.941406 185.351562 366.382812 202.699219 367.4375 C 212.949219 368.054688 282.996094 438.160156 283.289062 448.097656 C 283.714844 462.523438 270.902344 469.882812 258.511719 477 C 252.71875 480.328125 246.726562 483.769531 242.066406 487.90625 C 236.675781 492.6875 232.019531 499.351562 227.519531 505.800781 C 219.875 516.742188 212.652344 527.082031 202.667969 527.082031 Z M 199.488281 369.554688 C 183.621094 369.554688 166.699219 376.820312 152.589844 389.789062 C 135.300781 405.683594 124.6875 427.5 124.1875 448.15625 C 123.722656 467.488281 132.503906 472.21875 143.621094 478.207031 C 148.421875 480.796875 153.390625 483.472656 158.269531 487.578125 C 162.390625 491.042969 167.132812 496.003906 172.15625 501.253906 C 182.738281 512.3125 194.730469 524.847656 202.636719 524.867188 C 202.644531 524.867188 202.660156 524.867188 202.667969 524.867188 C 211.5 524.871094 218.402344 514.988281 225.707031 504.527344 C 230.28125 497.976562 235.015625 491.199219 240.597656 486.246094 C 245.429688 481.960938 251.519531 478.460938 257.410156 475.078125 C 269.777344 467.972656 281.460938 461.261719 281.074219 448.160156 C 280.8125 439.179688 211.839844 370.207031 202.5625 369.644531 C 201.546875 369.585938 200.519531 369.554688 199.488281 369.554688 Z M 203.25 511.789062 C 203.21875 511.789062 203.191406 511.789062 203.160156 511.789062 C 191.566406 511.683594 172.167969 498.824219 159.078125 487.84375 C 145.144531 476.152344 130.121094 459.765625 129.746094 448.84375 C 129.136719 431.15625 139.21875 410.421875 156.058594 394.734375 C 171.003906 380.816406 188.210938 373.753906 203.285156 375.351562 C 210.984375 376.171875 229.84375 391.777344 245.121094 406.878906 C 260.097656 421.683594 276.226562 440.457031 276.589844 448.757812 C 276.90625 455.878906 268.542969 466.105469 261.46875 473.433594 C 244.3125 491.210938 215.199219 511.789062 203.25 511.789062 Z M 199 377.339844 C 185.574219 377.339844 170.707031 384.113281 157.566406 396.351562 C 141.179688 411.617188 131.367188 431.699219 131.957031 448.765625 C 132.246094 457.167969 143.449219 471.839844 160.5 486.144531 C 177.109375 500.078125 194.257812 509.496094 203.179688 509.578125 C 203.203125 509.578125 203.230469 509.578125 203.253906 509.578125 C 213.488281 509.578125 241.484375 490.957031 259.882812 471.890625 C 269.449219 461.976562 274.601562 453.792969 274.382812 448.851562 C 273.804688 435.691406 217.136719 379.050781 203.050781 377.550781 C 201.71875 377.410156 200.367188 377.339844 199 377.339844 Z M 205.292969 501.59375 C 204.980469 501.59375 204.671875 501.585938 204.367188 501.574219 C 183.089844 500.746094 139.777344 472.84375 138.21875 450.4375 C 137.210938 435.9375 144.308594 419.824219 157.691406 406.226562 C 171.675781 392.023438 190.074219 383.363281 204.46875 384.136719 C 222.425781 385.113281 269.816406 435.46875 270.601562 450.300781 C 270.917969 456.324219 266.308594 464.496094 257.625 473.308594 C 243.75 487.382812 220.617188 501.59375 205.292969 501.59375 Z M 202.617188 386.300781 C 189.066406 386.300781 172.269531 394.578125 159.269531 407.78125 C 146.332031 420.925781 139.460938 436.417969 140.425781 450.28125 C 141.886719 471.300781 184.363281 498.574219 204.453125 499.359375 C 219.132812 500.011719 242.230469 485.773438 256.050781 471.75 C 264.175781 463.507812 268.671875 455.734375 268.390625 450.417969 C 267.671875 436.753906 221.289062 387.265625 204.351562 386.34375 C 203.777344 386.316406 203.199219 386.300781 202.617188 386.300781 Z M 207.605469 495.464844 C 207.109375 495.464844 206.621094 495.453125 206.140625 495.429688 C 184.996094 494.414062 150.195312 474.890625 147.242188 452.746094 C 145.667969 440.949219 151.515625 427.082031 163.292969 414.703125 C 176.296875 401.027344 193.578125 392.535156 206.285156 393.617188 C 225.128906 395.1875 264.191406 434.289062 265.15625 452.542969 C 265.496094 459.015625 261.882812 466.25 254.699219 473.46875 C 242.203125 486.03125 221.859375 495.464844 207.605469 495.464844 Z M 204.058594 395.738281 C 192.199219 395.738281 176.765625 403.746094 164.898438 416.226562 C 153.585938 428.121094 147.949219 441.324219 149.4375 452.453125 C 151.667969 469.171875 179.617188 491.941406 206.246094 493.21875 C 219.960938 493.871094 240.585938 484.515625 253.132812 471.90625 C 259.859375 465.144531 263.25 458.488281 262.945312 452.660156 C 262.042969 435.542969 223.792969 397.296875 206.101562 395.820312 C 205.433594 395.765625 204.75 395.738281 204.058594 395.738281 Z M 209.246094 492.367188 C 208.941406 492.367188 208.640625 492.363281 208.339844 492.359375 C 198.488281 492.140625 186.042969 487.878906 175.859375 481.230469 C 164.3125 473.691406 157.488281 464.527344 156.636719 455.429688 C 155.578125 444.054688 161.425781 430.726562 172.277344 419.777344 C 183.308594 408.648438 196.820312 402.601562 208.457031 403.578125 C 228.292969 405.261719 258.691406 435.683594 260.089844 455.25 C 260.550781 461.738281 257.828125 468.292969 252.207031 474.199219 C 242.253906 484.660156 223.945312 492.367188 209.246094 492.367188 Z M 158.84375 455.222656 C 160.585938 473.9375 190.070312 489.742188 208.390625 490.140625 C 220.648438 490.457031 239.871094 483.953125 250.605469 472.667969 C 255.859375 467.144531 258.308594 461.335938 257.886719 455.398438 C 256.542969 436.613281 227.332031 407.394531 208.273438 405.78125 C 197.289062 404.855469 184.425781 410.660156 173.851562 421.332031 C 163.453125 431.824219 157.84375 444.492188 158.84375 455.222656 Z M 211.152344 491.347656 C 211.015625 491.347656 210.882812 491.347656 210.75 491.347656 C 194.070312 491.183594 167.453125 476.960938 166.265625 458.40625 C 165.597656 448.007812 170.511719 436.433594 179.410156 427.453125 C 188.445312 418.332031 200.183594 413.230469 210.816406 413.820312 C 230.265625 414.886719 253.941406 438.5625 255.253906 458.261719 C 255.707031 465.058594 253.332031 471.261719 248.199219 476.695312 C 238.664062 486.796875 222.414062 491.347656 211.152344 491.347656 Z M 209.148438 415.988281 C 199.554688 415.988281 189.140625 420.777344 180.984375 429.011719 C 172.523438 437.550781 167.847656 448.492188 168.472656 458.265625 C 169.585938 475.652344 194.898438 488.976562 210.769531 489.132812 C 221.914062 489.285156 237.800781 484.484375 246.59375 475.175781 C 251.285156 470.207031 253.457031 464.5625 253.046875 458.410156 C 251.820312 440 228.863281 417.027344 210.699219 416.027344 C 210.183594 416 209.667969 415.988281 209.148438 415.988281 Z M 214.691406 491.394531 C 214.199219 491.394531 213.710938 491.390625 213.21875 491.390625 C 197.933594 491.300781 177.4375 488.109375 175.964844 461.488281 C 175.457031 452.410156 178.890625 443.476562 185.625 436.328125 C 192.882812 428.625 202.941406 424.183594 213.222656 424.144531 C 213.269531 424.144531 213.320312 424.144531 213.367188 424.144531 C 223.269531 424.144531 232.570312 427.988281 239.578125 434.984375 C 246.628906 442.015625 250.503906 451.40625 250.492188 461.429688 C 250.484375 471.570312 248.101562 478.863281 243.214844 483.71875 C 236.289062 490.601562 225.425781 491.394531 214.691406 491.394531 Z M 213.363281 426.359375 C 213.320312 426.359375 213.273438 426.359375 213.226562 426.359375 C 203.550781 426.398438 194.078125 430.582031 187.230469 437.847656 C 180.917969 444.546875 177.699219 452.902344 178.167969 461.367188 C 179.226562 480.46875 190.039062 489.042969 213.226562 489.175781 C 223.992188 489.226562 235.011719 488.746094 241.652344 482.144531 C 246.097656 477.726562 248.261719 470.949219 248.273438 461.425781 C 248.285156 451.996094 244.636719 443.160156 238.011719 436.550781 C 231.425781 429.976562 222.675781 426.359375 213.363281 426.359375 Z M 216.5625 491.492188 C 216.234375 491.492188 215.910156 491.488281 215.585938 491.484375 C 203.128906 491.367188 186.460938 488.441406 185.566406 464.445312 C 185.285156 456.902344 188.097656 449.628906 193.496094 443.972656 C 199.242188 437.941406 207.292969 434.4375 215.585938 434.359375 C 223.535156 434.355469 231.144531 437.347656 236.832031 442.992188 C 242.527344 448.648438 245.652344 456.253906 245.632812 464.40625 C 245.609375 473.746094 243.421875 480.433594 238.957031 484.851562 C 233.125 490.617188 224.070312 491.492188 216.5625 491.492188 Z M 215.609375 436.574219 C 207.914062 436.648438 200.433594 439.902344 195.09375 445.5 C 190.117188 450.71875 187.515625 457.421875 187.773438 464.363281 C 188.410156 481.417969 196.996094 489.097656 215.605469 489.273438 C 222.859375 489.324219 231.894531 488.71875 237.398438 483.277344 C 241.425781 479.296875 243.394531 473.125 243.417969 464.40625 C 243.4375 456.847656 240.542969 449.800781 235.269531 444.566406 C 230.011719 439.335938 222.964844 436.5625 215.609375 436.574219 Z M 218.183594 490.632812 C 218.027344 490.632812 217.867188 490.632812 217.707031 490.628906 C 202.921875 490.457031 195.253906 482.539062 194.917969 467.09375 C 194.789062 461.214844 196.972656 455.640625 201.0625 451.398438 C 205.359375 446.945312 211.425781 444.339844 217.703125 444.253906 C 223.789062 444.140625 229.523438 446.484375 233.839844 450.765625 C 238.171875 455.054688 240.542969 460.847656 240.519531 467.070312 C 240.492188 475.105469 238.449219 481.171875 234.460938 485.105469 C 230.742188 488.777344 225.265625 490.632812 218.183594 490.632812 Z M 218.015625 446.46875 C 217.921875 446.46875 217.828125 446.46875 217.734375 446.472656 C 212.042969 446.546875 206.542969 448.90625 202.652344 452.9375 C 198.976562 456.753906 197.011719 461.761719 197.128906 467.046875 C 197.4375 481.269531 204.175781 488.257812 217.730469 488.414062 C 224.480469 488.527344 229.542969 486.851562 232.90625 483.53125 C 236.460938 480.027344 238.277344 474.488281 238.304688 467.0625 C 238.324219 461.4375 236.1875 456.207031 232.28125 452.339844 C 228.457031 448.550781 223.398438 446.46875 218.015625 446.46875 Z M 219.628906 487.816406 C 219.558594 487.816406 219.488281 487.816406 219.417969 487.816406 C 211.984375 487.726562 203.996094 482.796875 203.859375 469.230469 C 203.777344 460.757812 210.753906 453.765625 219.414062 453.640625 C 223.652344 453.621094 227.488281 455.164062 230.4375 458.085938 C 233.398438 461.015625 235.015625 464.972656 235 469.222656 C 234.972656 475.492188 233.210938 480.527344 229.898438 483.789062 C 227.226562 486.425781 223.675781 487.816406 219.628906 487.816406 Z M 219.445312 455.855469 C 212 455.960938 206 461.953125 206.074219 469.207031 C 206.175781 479.375 211.175781 485.5 219.445312 485.597656 C 222.917969 485.574219 226.054688 484.46875 228.347656 482.214844 C 231.226562 479.375 232.765625 474.882812 232.785156 469.214844 C 232.800781 465.5625 231.414062 462.167969 228.878906 459.65625 C 226.355469 457.15625 223.003906 455.863281 219.445312 455.855469 Z M 220.625 482.035156 C 220.605469 482.035156 220.585938 482.035156 220.566406 482.035156 C 215.757812 481.992188 212.257812 477.210938 212.238281 470.660156 C 212.226562 466.101562 215.960938 462.359375 220.566406 462.316406 C 222.769531 462.277344 224.894531 463.144531 226.472656 464.714844 C 228.050781 466.285156 228.917969 468.394531 228.914062 470.660156 C 228.902344 474.523438 227.734375 477.800781 225.621094 479.886719 C 224.199219 481.292969 222.472656 482.035156 220.625 482.035156 Z M 220.648438 464.527344 C 220.628906 464.527344 220.605469 464.527344 220.585938 464.527344 C 217.191406 464.5625 214.441406 467.308594 214.449219 470.652344 L 214.449219 470.65625 C 214.464844 475.933594 217.046875 479.792969 220.582031 479.824219 C 220.597656 479.824219 220.609375 479.824219 220.621094 479.824219 C 221.875 479.824219 223.0625 479.300781 224.066406 478.3125 C 225.753906 476.640625 226.6875 473.921875 226.699219 470.652344 C 226.703125 468.988281 226.066406 467.4375 224.910156 466.285156 C 223.773438 465.152344 222.257812 464.527344 220.648438 464.527344 Z M 220.648438 464.527344 " fill-opacity="1" fill-rule="nonzero"/><g clip-path="url(#336613f2a2)"><path fill="#bcbec0" d="M 515.992188 284.191406 C 500.933594 274.9375 485.371094 265.375 476.105469 254.148438 C 468.261719 244.644531 461.753906 232.613281 454.863281 219.878906 C 438.613281 189.835938 421.816406 158.78125 385.546875 158.78125 C 385.53125 158.78125 385.511719 158.78125 385.496094 158.78125 C 353.390625 158.804688 335.488281 189.613281 318.175781 219.40625 C 309.300781 234.683594 300.914062 249.113281 290.96875 258.820312 C 282.039062 267.539062 269.234375 274.746094 255.675781 282.378906 C 228.429688 297.71875 200.253906 313.582031 200.578125 343.800781 C 201.066406 389.871094 221.671875 436.6875 257.109375 472.25 C 292.636719 507.902344 339.433594 528.511719 385.492188 528.800781 C 385.800781 528.804688 386.09375 528.804688 386.398438 528.804688 C 442.546875 528.804688 457.492188 495.765625 476.378906 454.003906 L 479.042969 448.128906 C 487.125 430.371094 505.695312 415.789062 523.65625 401.683594 C 546.621094 383.652344 568.308594 366.621094 568.640625 343.804688 C 569.027344 316.78125 542.0625 300.214844 515.992188 284.191406 Z M 522.285156 399.941406 C 504.117188 414.203125 485.328125 428.957031 477.023438 447.210938 L 474.359375 453.089844 C 455.078125 495.722656 441.128906 526.585938 386.421875 526.585938 C 386.121094 526.585938 385.808594 526.585938 385.503906 526.585938 C 340.023438 526.300781 293.796875 505.921875 258.671875 470.683594 C 223.640625 435.53125 203.269531 389.273438 202.785156 343.777344 C 202.476562 314.867188 230.070312 299.332031 256.757812 284.308594 C 270.445312 276.601562 283.371094 269.324219 292.507812 260.40625 C 302.671875 250.484375 311.128906 235.929688 320.085938 220.519531 C 337.085938 191.269531 354.664062 161.019531 385.496094 160.992188 C 385.515625 160.992188 385.527344 160.992188 385.542969 160.992188 C 420.496094 160.992188 436.980469 191.464844 452.917969 220.929688 C 459.859375 233.765625 466.417969 245.890625 474.394531 255.558594 C 483.894531 267.070312 499.625 276.734375 514.832031 286.078125 C 540.378906 301.777344 566.792969 318.011719 566.417969 343.773438 C 566.105469 365.53125 544.820312 382.242188 522.285156 399.941406 Z M 471.667969 255.328125 C 466.648438 248.414062 461.96875 240.605469 457.015625 232.335938 C 440.726562 205.167969 422.285156 174.398438 387.542969 174.398438 C 387.316406 174.398438 387.082031 174.402344 386.851562 174.402344 C 357.554688 174.746094 338.296875 203.304688 321.304688 228.5 C 313.476562 240.105469 306.085938 251.066406 298.167969 258.957031 C 290.609375 266.488281 280.285156 273.4375 269.351562 280.789062 C 244.503906 297.507812 218.8125 314.792969 218.652344 342.691406 C 218.414062 384.085938 239.242188 429.007812 274.371094 462.863281 C 306.371094 493.703125 345.308594 511.09375 381.972656 511.09375 C 383.621094 511.09375 385.273438 511.054688 386.914062 510.988281 C 430.75 509.09375 447.542969 478.664062 466.988281 443.433594 C 468.183594 441.269531 469.390625 439.082031 470.613281 436.886719 C 476.375 426.539062 486.082031 415.472656 496.359375 403.753906 C 514.195312 383.421875 532.636719 362.398438 532.253906 342.671875 C 531.820312 320.382812 512.324219 299.90625 493.464844 280.105469 C 485.214844 271.441406 477.421875 263.261719 471.667969 255.328125 Z M 494.703125 402.292969 C 484.34375 414.101562 474.558594 425.257812 468.683594 435.8125 C 467.460938 438.007812 466.25 440.195312 465.054688 442.363281 C 445.933594 477.007812 429.417969 506.929688 386.820312 508.773438 C 349.339844 510.417969 308.917969 493.078125 275.90625 461.265625 C 241.207031 427.828125 220.632812 383.503906 220.867188 342.699219 C 221.023438 315.976562 246.222656 299.019531 270.589844 282.625 C 281.613281 275.210938 292.023438 268.207031 299.734375 260.523438 C 307.800781 252.484375 315.253906 241.433594 323.140625 229.734375 C 340.644531 203.78125 358.738281 176.945312 386.882812 176.617188 C 387.113281 176.613281 387.335938 176.609375 387.5625 176.609375 C 421.027344 176.609375 438.355469 205.515625 455.117188 233.476562 C 460.097656 241.785156 464.800781 249.632812 469.875 256.628906 C 475.71875 264.679688 483.5625 272.914062 491.863281 281.632812 C 510.429688 301.125 529.628906 321.285156 530.042969 342.714844 C 530.414062 361.585938 512.257812 382.277344 494.703125 402.292969 Z M 468.988281 256.3125 C 466.871094 253.105469 464.726562 249.734375 462.523438 246.273438 C 446.082031 220.441406 425.65625 188.351562 391.261719 188.351562 C 390.945312 188.351562 390.628906 188.355469 390.308594 188.359375 C 363.125 188.824219 343.414062 214.175781 326.027344 236.542969 C 319.476562 244.96875 313.285156 252.925781 307.058594 259.183594 C 300.527344 265.742188 292.542969 271.902344 284.09375 278.425781 C 262.171875 295.339844 239.503906 312.835938 238.828125 339.902344 C 237.914062 376.503906 257.085938 417.132812 290.105469 448.585938 C 318.816406 475.933594 353.449219 491.730469 384.058594 491.730469 C 386.195312 491.730469 388.316406 491.65625 390.410156 491.5 C 425.695312 488.878906 445.398438 460.238281 465.730469 425.894531 C 468.890625 420.554688 472.753906 414.601562 476.839844 408.300781 C 491.644531 385.488281 508.421875 359.628906 507.878906 339.898438 C 507.167969 314.074219 486.578125 282.925781 470.039062 257.898438 Z M 474.984375 407.097656 C 470.886719 413.417969 467.011719 419.390625 463.828125 424.769531 C 443.816406 458.570312 424.46875 486.753906 390.246094 489.292969 C 358.738281 491.644531 321.898438 475.8125 291.632812 446.988281 C 259.054688 415.957031 240.140625 375.945312 241.039062 339.960938 C 241.6875 313.949219 263.933594 296.78125 285.445312 280.183594 C 293.953125 273.617188 301.992188 267.410156 308.625 260.75 C 314.949219 254.398438 321.179688 246.386719 327.769531 237.90625 C 344.855469 215.933594 364.21875 191.023438 390.347656 190.578125 C 390.664062 190.574219 390.972656 190.566406 391.289062 190.566406 C 424.433594 190.566406 443.667969 220.78125 460.65625 247.464844 C 462.863281 250.933594 465.015625 254.316406 467.140625 257.53125 L 468.195312 259.125 C 484.578125 283.914062 504.972656 314.769531 505.667969 339.964844 C 506.191406 359.003906 488.890625 385.671875 474.984375 407.097656 Z M 395.390625 201.023438 C 369.46875 201.660156 350.378906 222.988281 331.921875 243.617188 C 326.925781 249.195312 322.210938 254.464844 317.410156 259.265625 C 312.828125 263.84375 307.625 268.40625 302.117188 273.230469 C 282.738281 290.214844 260.777344 309.460938 260.625 335.871094 C 260.433594 369.574219 277.707031 406.085938 306.832031 433.546875 C 332.238281 457.5 362.238281 470.910156 390.007812 470.910156 C 391.84375 470.910156 393.675781 470.851562 395.488281 470.730469 C 415.144531 469.449219 438.820312 449.644531 460.449219 416.390625 C 478.816406 388.152344 492.261719 355.066406 493.144531 335.929688 C 494.460938 307.53125 469.148438 254.5625 440.042969 224.804688 C 424.5 208.910156 409.003906 200.683594 395.390625 201.023438 Z M 477.359375 295.484375 C 478.105469 298.449219 478.738281 301.488281 479.265625 304.589844 C 479.347656 306.097656 479.398438 307.636719 479.375 309.246094 C 478.960938 337.261719 457.363281 358.3125 429.082031 358.3125 C 428.992188 358.3125 428.898438 358.3125 428.808594 358.3125 C 401.871094 358.183594 379.878906 336.179688 379.78125 309.257812 C 379.734375 296.230469 385.984375 282.617188 396.5 272.839844 C 405.300781 264.660156 415.964844 260.113281 426.144531 260.113281 C 427.007812 260.113281 427.867188 260.144531 428.722656 260.210938 C 442.210938 261.253906 462.070312 265.710938 472.464844 281.910156 C 474.308594 286.453125 475.945312 291.003906 477.359375 295.484375 Z M 469.847656 269.785156 C 469.761719 269.679688 469.667969 269.574219 469.578125 269.46875 C 469.359375 269.097656 469.125 268.742188 468.902344 268.378906 C 468.292969 267.160156 467.636719 265.96875 467 264.769531 C 467.96875 266.433594 468.921875 268.105469 469.847656 269.785156 Z M 467.066406 269.988281 C 467.707031 271.28125 468.328125 272.578125 468.933594 273.882812 C 461.070312 265.808594 448.578125 259.523438 428.886719 258 C 417.335938 257.101562 404.988281 261.921875 394.992188 271.214844 C 384.03125 281.40625 377.515625 295.628906 377.566406 309.265625 C 377.667969 337.394531 400.652344 360.386719 428.796875 360.523438 C 428.890625 360.523438 428.984375 360.523438 429.082031 360.523438 C 455.550781 360.519531 476.402344 342.84375 480.746094 318.09375 C 480.765625 318.507812 480.800781 318.914062 480.816406 319.328125 C 477.238281 350.011719 455.554688 379.957031 422.878906 379.957031 C 422.796875 379.957031 422.710938 379.957031 422.628906 379.957031 C 405.785156 379.875 388.742188 372.28125 375.871094 359.121094 C 363.535156 346.511719 356.617188 330.144531 356.882812 314.207031 C 357.160156 297.671875 367.320312 278.070312 382.765625 264.269531 C 394.425781 253.847656 407.15625 248.25 419.007812 248.25 C 420.1875 248.25 421.355469 248.304688 422.515625 248.414062 C 439.261719 250.027344 455.804688 257.152344 467.066406 269.988281 Z M 460.871094 260.898438 C 450.839844 252.863281 437.871094 247.667969 422.730469 246.210938 C 409.300781 244.917969 394.582031 250.742188 381.296875 262.613281 C 365.414062 276.808594 354.964844 297.042969 354.675781 314.167969 C 354.398438 330.691406 361.546875 347.636719 374.292969 360.664062 C 387.578125 374.246094 405.191406 382.082031 422.621094 382.164062 C 422.710938 382.164062 422.796875 382.164062 422.882812 382.164062 C 450.753906 382.164062 470.917969 361.308594 479.285156 336.308594 C 472.566406 368.222656 446.90625 400.835938 415.683594 402.167969 C 395.792969 403.035156 375.335938 394.832031 359.59375 379.707031 C 342.820312 363.589844 333.234375 341.714844 333.285156 319.6875 C 333.328125 300.960938 345.132812 278.347656 364.097656 260.664062 C 380.070312 245.769531 398.183594 237.109375 413.136719 237.109375 C 413.984375 237.109375 414.828125 237.140625 415.65625 237.195312 C 434.875 238.503906 450.011719 247.667969 460.871094 260.898438 Z M 415.804688 234.988281 C 399.78125 233.894531 379.910156 242.890625 362.585938 259.046875 C 343.191406 277.132812 331.113281 300.367188 331.070312 319.683594 C 331.019531 342.3125 340.855469 364.769531 358.058594 381.300781 C 373.46875 396.109375 393.289062 404.445312 412.863281 404.445312 C 413.832031 404.445312 414.808594 404.425781 415.777344 404.386719 C 442.363281 403.25 465.03125 380.261719 476.058594 353.851562 C 472.402344 365.5 466.859375 377.359375 459.878906 387.980469 C 445.148438 410.40625 426.90625 423.40625 408.511719 424.585938 C 385.898438 426.03125 361.8125 416.328125 342.402344 397.957031 C 321.523438 378.191406 309.195312 351.0625 309.425781 325.390625 C 309.609375 305.078125 325.222656 277.570312 349.203125 255.3125 C 370.023438 235.988281 392.1875 225.074219 408.507812 226.175781 C 424.191406 227.214844 440.332031 235.855469 453.394531 250.109375 C 443.316406 241.597656 430.753906 236.007812 415.804688 234.988281 Z M 408.65625 223.964844 C 391.710938 222.855469 368.957031 233.960938 347.699219 253.6875 C 323.292969 276.339844 307.402344 304.476562 307.214844 325.371094 C 306.980469 351.648438 319.566406 379.382812 340.882812 399.566406 C 359.429688 417.128906 382.207031 426.945312 404.054688 426.945312 C 405.59375 426.945312 407.128906 426.894531 408.65625 426.796875 C 427.757812 425.570312 446.605469 412.21875 461.730469 389.195312 C 474.898438 369.160156 483.113281 344.707031 483.175781 325.386719 C 483.175781 324.808594 483.152344 324.222656 483.144531 323.640625 C 483.148438 323.535156 483.160156 323.429688 483.164062 323.320312 C 483.390625 325.960938 483.527344 328.523438 483.484375 330.886719 C 483.144531 349.464844 472.832031 377.769531 457.816406 401.324219 C 440.496094 428.496094 419.988281 445.085938 401.554688 446.835938 C 377.523438 449.109375 351.96875 439.320312 329.566406 419.269531 C 303.078125 395.554688 286.300781 361.691406 285.789062 330.890625 C 285.472656 311.691406 301.96875 283.503906 328.847656 257.324219 C 354.851562 232 383.441406 215.378906 401.683594 214.988281 C 402 214.980469 402.308594 214.976562 402.621094 214.976562 C 416.207031 214.976562 429.503906 221.375 442.175781 234.003906 C 445.4375 237.257812 448.546875 240.855469 451.5 244.691406 C 439.113281 232.230469 424.335938 225.003906 408.65625 223.964844 Z M 443.730469 232.433594 C 430.328125 219.070312 416.128906 212.488281 401.632812 212.769531 C 362.40625 213.617188 282.84375 286.75 283.574219 330.921875 C 284.097656 362.320312 301.152344 396.800781 328.089844 420.914062 C 348.777344 439.429688 372.160156 449.371094 394.671875 449.371094 C 397.046875 449.371094 399.410156 449.257812 401.761719 449.039062 C 445.761719 444.867188 485.03125 367.261719 485.699219 330.925781 C 485.808594 324.914062 485.046875 317.933594 483.566406 310.472656 C 483.574219 305.269531 483.039062 300.28125 482.023438 295.535156 C 488.027344 310.773438 491.433594 325.101562 490.933594 335.832031 C 489.183594 373.640625 438.136719 465.734375 395.34375 468.523438 C 366.703125 470.363281 334.992188 457.054688 308.351562 431.9375 C 279.664062 404.890625 262.648438 368.984375 262.839844 335.886719 C 262.980469 310.472656 284.546875 291.574219 303.570312 274.898438 C 309.109375 270.046875 314.339844 265.464844 318.972656 260.832031 C 323.8125 255.992188 328.550781 250.699219 333.566406 245.09375 C 351.714844 224.820312 370.476562 203.851562 395.441406 203.242188 C 395.691406 203.234375 395.945312 203.230469 396.195312 203.230469 C 409.058594 203.230469 423.648438 211.210938 438.457031 226.351562 C 441.445312 229.40625 444.386719 232.714844 447.265625 236.207031 C 446.101562 234.921875 444.941406 233.640625 443.730469 232.433594 Z M 433.8125 270.738281 C 423.867188 270.582031 414.734375 274.222656 408.179688 281.03125 C 401.933594 287.519531 398.769531 296.15625 399.269531 305.34375 C 400.367188 325.449219 414.523438 339.832031 433.0625 339.832031 C 433.3125 339.832031 433.566406 339.832031 433.820312 339.828125 C 445.863281 339.574219 458.859375 333.878906 466.929688 325.324219 C 472.601562 319.304688 475.460938 312.363281 475.191406 305.242188 C 474.445312 285.308594 452.785156 271.058594 433.8125 270.738281 Z M 472.980469 305.320312 C 473.226562 311.835938 470.574219 318.226562 465.320312 323.800781 C 457.640625 331.949219 445.257812 337.371094 433.773438 337.609375 C 416.054688 337.992188 402.523438 324.359375 401.480469 305.21875 C 401.011719 296.652344 403.957031 288.609375 409.777344 282.570312 C 415.765625 276.347656 424.042969 272.945312 433.148438 272.945312 C 433.359375 272.945312 433.566406 272.949219 433.777344 272.949219 C 451.757812 273.257812 472.277344 286.628906 472.980469 305.320312 Z M 419.320312 302.664062 C 419.71875 312.851562 427.242188 320.449219 436.875 320.449219 C 436.96875 320.449219 437.058594 320.449219 437.152344 320.445312 C 444.34375 320.335938 453.347656 316.476562 458.097656 311.464844 C 460.726562 308.695312 462.050781 305.621094 461.9375 302.578125 C 461.535156 292.066406 446.753906 284.910156 437.152344 284.792969 C 432.1875 284.78125 427.484375 286.613281 424.101562 290.085938 C 420.832031 293.441406 419.132812 297.910156 419.320312 302.664062 Z M 436.90625 287.003906 C 436.976562 287.003906 437.046875 287.003906 437.121094 287.003906 C 445.78125 287.113281 459.386719 293.882812 459.722656 302.660156 C 459.816406 305.128906 458.730469 307.574219 456.492188 309.9375 C 452.109375 314.5625 443.777344 318.128906 437.121094 318.230469 C 437.039062 318.230469 436.960938 318.230469 436.882812 318.230469 C 428.464844 318.230469 421.882812 311.542969 421.53125 302.574219 C 421.371094 298.433594 422.847656 294.546875 425.6875 291.628906 C 428.589844 288.640625 432.566406 287.003906 436.90625 287.003906 Z M 436.90625 287.003906 " fill-opacity="1" fill-rule="nonzero"/></g><g clip-path="url(#4e5c9e8de2)"><path fill="#ffffff" d="M 317.238281 167.542969 C 313.890625 166 310.480469 164.429688 307.019531 162.800781 C 289.402344 154.523438 274.949219 135.730469 260.96875 117.558594 C 242.882812 94.039062 225.796875 71.824219 202.632812 71.484375 C 175.203125 71.035156 158.734375 98.621094 142.828125 125.25 C 133.285156 141.226562 124.269531 156.316406 113.109375 165.742188 C 103.507812 173.847656 91.074219 180.394531 77.910156 187.328125 C 48.316406 202.910156 17.714844 219.027344 17.695312 254.707031 C 17.671875 289.605469 48.46875 302.019531 78.246094 314.027344 C 93.367188 320.125 107.652344 325.882812 117.875 334.367188 C 130.242188 344.632812 139.113281 363.105469 147.691406 380.972656 C 161.050781 408.800781 174.863281 437.578125 202.613281 437.769531 C 202.773438 437.769531 202.933594 437.769531 203.09375 437.769531 C 247.710938 437.769531 298.265625 396.230469 331.84375 368.640625 C 369.042969 338.074219 387.261719 300.808594 387.542969 254.710938 C 387.875 200.070312 356.703125 185.714844 317.238281 167.542969 Z M 330.351562 367.003906 C 297.101562 394.324219 246.917969 435.558594 203.09375 435.558594 C 202.941406 435.558594 202.78125 435.554688 202.628906 435.554688 C 176.261719 435.378906 162.753906 407.234375 149.6875 380.015625 C 141.007812 361.9375 132.03125 343.242188 119.292969 332.664062 C 108.800781 323.960938 94.363281 318.140625 79.078125 311.976562 C 49.976562 300.242188 19.886719 288.109375 19.90625 254.707031 C 19.925781 220.363281 49.925781 204.566406 78.941406 189.289062 C 92.214844 182.296875 104.753906 175.695312 114.535156 167.433594 C 125.976562 157.769531 135.511719 141.816406 144.726562 126.382812 C 160.203125 100.476562 176.203125 73.699219 202.050781 73.699219 C 202.234375 73.699219 202.417969 73.699219 202.601562 73.703125 C 224.699219 74.023438 241.46875 95.828125 259.21875 118.910156 C 273.359375 137.289062 287.976562 156.300781 306.078125 164.808594 C 309.542969 166.4375 312.960938 168.007812 316.3125 169.554688 C 355.054688 187.394531 385.65625 201.484375 385.328125 254.699219 C 385.050781 300.097656 367.09375 336.808594 330.351562 367.003906 Z M 369.804688 252.867188 C 367.726562 212.128906 339.746094 196.496094 307.339844 178.390625 C 303.570312 176.28125 299.746094 174.144531 295.910156 171.933594 C 285.628906 166.023438 274.621094 156.089844 262.964844 145.578125 C 242.75 127.34375 221.847656 108.496094 202.148438 108.496094 C 201.953125 108.496094 201.761719 108.496094 201.570312 108.5 C 179.222656 108.921875 158.789062 129.035156 139.023438 148.488281 C 130.40625 156.96875 122.269531 164.984375 114.40625 170.859375 C 107.21875 176.230469 98.859375 181.140625 90.007812 186.335938 C 63.839844 201.703125 34.179688 219.121094 33.378906 252.898438 C 32.65625 283.449219 62.453125 296.445312 88.738281 307.914062 C 99.984375 312.820312 110.609375 317.453125 118.417969 323.117188 C 128.273438 330.257812 137.023438 341.46875 146.292969 353.339844 C 162.136719 373.636719 178.519531 394.625 201.566406 395.230469 C 202.390625 395.253906 203.21875 395.261719 204.054688 395.261719 C 244.332031 395.261719 296.65625 370.222656 332.304688 333.667969 C 357.808594 307.515625 371.125 278.816406 369.804688 252.867188 Z M 330.71875 332.121094 C 294.730469 369.027344 241.71875 394.109375 201.621094 393.015625 C 179.621094 392.4375 163.5625 371.867188 148.035156 351.976562 C 138.667969 339.980469 129.820312 328.644531 119.71875 321.324219 C 111.710938 315.519531 100.984375 310.839844 89.621094 305.882812 C 62.722656 294.148438 34.90625 282.011719 35.59375 252.949219 C 36.363281 220.40625 64.203125 204.054688 91.128906 188.246094 C 100.035156 183.019531 108.445312 178.078125 115.734375 172.632812 C 123.714844 166.671875 131.90625 158.605469 140.582031 150.070312 C 160.035156 130.921875 180.148438 111.117188 201.617188 110.714844 C 220.582031 110.335938 241.390625 129.097656 261.484375 147.222656 C 273.230469 157.816406 284.324219 167.824219 294.808594 173.855469 C 298.65625 176.070312 302.488281 178.210938 306.265625 180.324219 C 338.097656 198.105469 365.585938 213.464844 367.597656 252.980469 C 368.882812 278.308594 355.789062 306.414062 330.71875 332.121094 Z M 289.152344 179.953125 L 285.089844 177.496094 C 279.894531 174.339844 274.078125 170.5 267.925781 166.429688 C 246.234375 152.09375 219.316406 134.304688 199.8125 134.304688 C 199.53125 134.304688 199.253906 134.308594 198.976562 134.316406 C 173.539062 135 142.230469 156.1875 117.070312 173.214844 L 115.5625 174.234375 C 111.445312 177.019531 106.953125 179.824219 102.199219 182.796875 C 77.8125 198.035156 47.457031 217.003906 47.503906 248.421875 C 47.546875 275.605469 74.425781 288.863281 98.140625 300.558594 C 105.644531 304.257812 112.730469 307.75 118.425781 311.445312 C 125.832031 316.246094 133.199219 322.320312 141 328.75 C 159.164062 343.726562 177.941406 359.207031 198.597656 359.207031 C 198.738281 359.207031 198.878906 359.207031 199.019531 359.203125 C 238.792969 358.796875 300.664062 336.941406 331.265625 302.335938 C 346.164062 285.492188 352.636719 267.308594 350.503906 248.296875 C 346.734375 214.761719 317.460938 197.066406 289.152344 179.953125 Z M 329.609375 300.871094 C 299.40625 335.019531 238.296875 356.589844 198.996094 356.988281 C 178.921875 357.160156 160.386719 341.863281 142.40625 327.042969 C 134.558594 320.570312 127.140625 314.457031 119.628906 309.585938 C 113.824219 305.824219 106.683594 302.300781 99.121094 298.570312 C 75.980469 287.160156 49.753906 274.230469 49.714844 248.417969 C 49.671875 218.230469 78.203125 200.402344 103.375 184.675781 C 108.144531 181.695312 112.648438 178.878906 116.800781 176.070312 L 118.308594 175.050781 C 143.230469 158.183594 174.242188 137.195312 199.035156 136.535156 C 199.296875 136.527344 199.558594 136.523438 199.824219 136.523438 C 218.652344 136.523438 245.265625 154.109375 266.707031 168.28125 C 272.878906 172.359375 278.710938 176.210938 283.941406 179.390625 L 288.007812 181.851562 C 315.859375 198.6875 344.65625 216.09375 348.300781 248.546875 C 350.363281 266.90625 344.074219 284.511719 329.609375 300.871094 Z M 195.261719 150.890625 C 170.976562 149.683594 112.300781 174.855469 80.925781 204.953125 C 67.210938 218.109375 60.3125 230.511719 60.414062 241.8125 C 60.488281 249.949219 66.0625 259.390625 76.976562 269.886719 C 107.082031 298.832031 170.976562 328.84375 194.449219 328.84375 C 194.71875 328.84375 194.980469 328.839844 195.238281 328.832031 C 214.316406 328.25 237.792969 324.082031 258.035156 317.683594 C 276.484375 311.851562 301.675781 301.179688 316.902344 283.449219 C 327.460938 271.144531 331.863281 257.085938 329.992188 241.671875 C 324.941406 200.179688 227.300781 152.527344 195.261719 150.890625 Z M 120.71875 181.839844 C 122.535156 180.800781 124.414062 179.816406 126.347656 178.894531 C 121.59375 184.296875 119.121094 190.832031 119.027344 198.371094 C 118.925781 206.429688 121.574219 213.234375 126.910156 218.589844 C 139.117188 230.859375 161.929688 231.957031 169.636719 231.957031 C 169.863281 231.957031 170.074219 231.957031 170.273438 231.953125 C 184.996094 231.832031 204.671875 229.410156 214.808594 218.542969 C 219.742188 213.253906 221.996094 206.449219 221.503906 198.316406 C 220.621094 183.816406 211.148438 174.898438 199.738281 169.699219 C 217.578125 174.304688 237.59375 184.402344 240.625 206.570312 C 241.828125 215.347656 240.027344 222.667969 235.28125 228.316406 C 223.027344 242.890625 193.445312 243.957031 177.550781 244.53125 L 174.835938 244.632812 C 155.867188 245.375 131.03125 240.636719 118.347656 228.367188 C 112.191406 222.40625 109.09375 215.023438 109.144531 206.425781 C 109.199219 197.273438 112.71875 189.324219 119.609375 182.804688 C 119.964844 182.472656 120.347656 182.164062 120.71875 181.839844 Z M 143.824219 172.40625 C 151.886719 170.101562 160.015625 168.582031 167.335938 167.726562 C 188.796875 168.652344 198.542969 176.125 198.851562 191.914062 C 199.207031 210.304688 184.371094 213.425781 166.414062 215.390625 C 155.195312 216.617188 146.308594 214.570312 140.722656 209.472656 C 136.269531 205.402344 134.082031 199.496094 134.21875 191.914062 C 134.355469 184.515625 136.558594 178.734375 140.773438 174.734375 C 141.683594 173.871094 142.726562 173.113281 143.824219 172.40625 Z M 219.292969 198.453125 C 219.75 205.957031 217.695312 212.207031 213.191406 217.035156 C 203.589844 227.324219 184.542969 229.625 170.257812 229.742188 C 163.476562 229.8125 140.433594 229.046875 128.476562 217.03125 C 123.582031 212.109375 121.144531 205.84375 121.238281 198.402344 C 121.335938 190.597656 124.152344 183.949219 129.609375 178.648438 C 130.484375 177.796875 131.425781 177.015625 132.398438 176.257812 C 134.351562 175.484375 136.335938 174.765625 138.339844 174.09375 C 134.289062 178.453125 132.140625 184.410156 132.007812 191.871094 C 131.855469 200.117188 134.289062 206.585938 139.234375 211.105469 C 144.179688 215.625 151.398438 217.949219 160.335938 217.949219 C 162.359375 217.949219 164.46875 217.832031 166.65625 217.59375 C 185.011719 215.585938 201.460938 212.105469 201.0625 191.871094 C 200.746094 175.476562 190.425781 169.261719 179.214844 166.878906 C 179.488281 166.875 179.777344 166.863281 180.042969 166.859375 C 180.261719 166.859375 180.480469 166.859375 180.703125 166.859375 C 181.480469 166.859375 182.304688 166.875 183.15625 166.90625 C 199.554688 169.929688 218.09375 178.679688 219.292969 198.453125 Z M 106.933594 206.414062 C 106.875 215.640625 110.199219 223.5625 116.808594 229.957031 C 129.84375 242.566406 153.183594 246.921875 170.882812 246.921875 C 172.265625 246.921875 173.617188 246.898438 174.921875 246.847656 L 177.632812 246.746094 C 193.867188 246.160156 224.089844 245.066406 236.972656 229.742188 C 242.140625 223.59375 244.109375 215.695312 242.820312 206.269531 C 240.601562 190.0625 229.886719 180.023438 217.371094 173.792969 C 221.527344 175.253906 225.738281 176.964844 229.90625 178.988281 C 243.664062 185.652344 260.480469 197.402344 262.484375 215.511719 C 263.617188 225.757812 261.054688 234.417969 254.867188 241.246094 C 239.613281 258.082031 205.769531 261.257812 180.042969 260.914062 C 157.050781 260.628906 97.410156 251.890625 97.582031 215.394531 C 97.636719 203.378906 103.878906 194.023438 113.144531 186.863281 C 109.066406 192.601562 106.972656 199.148438 106.933594 206.414062 Z M 109.277344 187.042969 C 100.183594 194.964844 95.421875 204.539062 95.371094 215.382812 C 95.292969 232.105469 107.007812 245.421875 129.253906 253.882812 C 146.523438 260.453125 167.394531 262.96875 180.019531 263.125 C 181.132812 263.136719 182.257812 263.148438 183.402344 263.148438 C 209.089844 263.148438 241.371094 259.433594 256.507812 242.730469 C 263.140625 235.410156 265.890625 226.171875 264.683594 215.265625 C 262.59375 196.394531 245.027344 182.757812 225.132812 174.421875 C 231.472656 176.640625 237.980469 179.320312 244.402344 182.519531 C 268.316406 194.441406 282.570312 209.464844 284.535156 224.820312 C 285.996094 236.25 283.179688 246.085938 276.160156 254.050781 C 255.882812 277.0625 205.9375 279.550781 185.367188 279.433594 C 158.882812 279.390625 86.179688 266.332031 86.207031 224.679688 C 86.214844 213.601562 90.554688 203.671875 99.105469 195.164062 C 102.101562 192.1875 105.550781 189.503906 109.277344 187.042969 Z M 89.585938 201.742188 C 90.871094 200.453125 92.242188 199.207031 93.644531 197.984375 C 87.273438 205.898438 84.007812 214.847656 84 224.679688 C 83.988281 243.636719 98.113281 259.230469 124.851562 269.773438 C 148.519531 279.109375 174.027344 281.628906 185.367188 281.648438 C 185.507812 281.648438 185.644531 281.648438 185.785156 281.648438 C 206.886719 281.648438 257.089844 279.046875 277.824219 255.519531 C 285.28125 247.054688 288.28125 236.632812 286.734375 224.542969 C 281.957031 187.210938 213.992188 164.238281 185.378906 164.101562 C 185.230469 164.101562 185.078125 164.101562 184.929688 164.101562 C 183.605469 164.101562 182.207031 164.132812 180.746094 164.1875 C 180.175781 164.132812 179.625 164.085938 179.09375 164.039062 C 177.96875 163.894531 176.863281 163.769531 175.785156 163.675781 C 181.4375 162.816406 186.445312 162.382812 190.449219 162.382812 C 190.480469 162.382812 190.515625 162.382812 190.542969 162.382812 C 223.976562 162.4375 301.683594 198.347656 306.425781 233.839844 C 308.109375 246.449219 304.707031 257.6875 296.316406 267.242188 C 272.617188 294.222656 216.765625 301.175781 190.554688 301.054688 C 176.589844 301.003906 147.816406 294.507812 121.992188 282.589844 C 104.351562 274.441406 74.742188 257.257812 74.679688 233.691406 C 74.648438 222.425781 79.664062 211.679688 89.585938 201.742188 Z M 315.222656 282.003906 C 300.339844 299.34375 275.546875 309.828125 257.371094 315.574219 C 237.308594 321.914062 214.058594 326.046875 195.175781 326.621094 C 173.199219 327.253906 108.035156 296.679688 78.511719 268.292969 C 68.042969 258.226562 62.695312 249.3125 62.628906 241.796875 C 62.535156 231.285156 69.378906 219.105469 82.433594 206.578125 C 75.828125 215.132812 72.441406 224.21875 72.464844 233.691406 C 72.574219 275.65625 160.234375 303.148438 190.542969 303.265625 C 190.734375 303.265625 190.921875 303.265625 191.117188 303.265625 C 217.917969 303.265625 273.925781 296.078125 297.976562 268.695312 C 306.808594 258.636719 310.386719 246.808594 308.617188 233.539062 C 303.488281 195.148438 220.882812 160.214844 190.550781 160.160156 C 190.515625 160.160156 190.484375 160.160156 190.453125 160.160156 C 183.964844 160.160156 174.90625 161.277344 164.667969 163.5 C 158.765625 163.839844 152.355469 164.878906 146.246094 166.824219 C 144.710938 167.222656 143.183594 167.652344 141.679688 168.132812 C 161.925781 158.847656 181.34375 153.050781 193.414062 153.050781 C 194.011719 153.050781 194.59375 153.066406 195.15625 153.097656 C 226.710938 154.710938 322.859375 201.351562 327.796875 241.933594 C 329.59375 256.714844 325.363281 270.191406 315.222656 282.003906 Z M 162.703125 202.960938 C 163.164062 202.960938 163.632812 202.949219 164.105469 202.921875 C 175.515625 202.261719 181.988281 196.652344 181.859375 187.535156 C 181.726562 178.144531 174.734375 172.039062 164.050781 171.980469 C 163.996094 171.980469 163.941406 171.980469 163.890625 171.980469 C 153.277344 171.980469 146.351562 178.074219 146.226562 187.535156 C 146.164062 192.007812 147.65625 195.828125 150.527344 198.574219 C 153.507812 201.429688 157.789062 202.960938 162.703125 202.960938 Z M 163.902344 174.195312 C 163.945312 174.195312 163.992188 174.195312 164.035156 174.195312 C 171.492188 174.234375 179.507812 177.769531 179.644531 187.566406 C 179.792969 198.207031 169.894531 200.371094 163.976562 200.710938 C 159.105469 200.992188 154.867188 199.667969 152.058594 196.976562 C 149.636719 194.664062 148.386719 191.410156 148.4375 187.566406 C 148.566406 177.699219 156.484375 174.195312 163.902344 174.195312 Z M 163.902344 174.195312 " fill-opacity="1" fill-rule="nonzero"/></g></svg>