<?xml version="1.0" standalone="no"?>
<!DOCTYPE svg PUBLIC "-//W3C//DTD SVG 20010904//EN"
 "http://www.w3.org/TR/2001/REC-SVG-20010904/DTD/svg10.dtd">
<svg version="1.0" xmlns="http://www.w3.org/2000/svg"
 width="800.000000pt" height="800.000000pt" viewBox="0 0 800.000000 800.000000"
 preserveAspectRatio="xMidYMid meet">
<metadata>
Created by potrace 1.14, written by Peter Selinger 2001-2017
</metadata>
<g transform="translate(0.000000,800.000000) scale(0.100000,-0.100000)"
fill="#000000" stroke="none">
<path d="M3729 7996 c-2 -2 -41 -6 -87 -10 -78 -6 -340 -42 -372 -51 -8 -2
-31 -6 -50 -9 -139 -22 -529 -134 -645 -185 -11 -5 -72 -30 -135 -56 -789
-323 -1499 -959 -1928 -1725 -59 -107 -172 -333 -172 -345 0 -3 -11 -29 -25
-58 -73 -162 -194 -538 -220 -688 -3 -19 -12 -61 -19 -94 -8 -33 -17 -82 -21
-108 -3 -27 -8 -59 -11 -70 -9 -46 -25 -186 -32 -277 -14 -189 -6 -642 13
-762 2 -13 6 -50 10 -83 4 -32 8 -62 10 -65 1 -3 6 -29 9 -59 4 -29 8 -56 10
-60 2 -3 7 -28 10 -54 19 -138 121 -487 209 -713 103 -266 293 -612 471 -859
27 -38 53 -72 56 -75 3 -3 24 -30 47 -61 23 -31 47 -62 55 -70 7 -8 38 -44 68
-79 63 -75 323 -336 395 -397 371 -310 760 -547 1140 -693 61 -23 119 -46 130
-51 34 -14 263 -87 297 -94 18 -4 62 -15 98 -25 36 -10 82 -21 104 -24 21 -4
42 -8 46 -11 19 -12 317 -54 495 -70 69 -7 590 -8 620 -1 11 2 61 7 110 11 77
6 315 42 395 60 14 3 48 10 75 16 28 5 100 23 160 40 400 110 756 269 1110
493 72 46 269 185 320 227 448 366 760 735 1035 1224 31 54 124 241 145 290
142 333 248 685 291 975 3 19 7 42 9 50 2 8 7 42 10 75 4 33 8 67 10 75 25 96
26 745 1 890 -2 14 -7 52 -11 85 -4 32 -8 66 -10 75 -1 8 -8 49 -15 90 -7 41
-19 104 -27 140 -8 36 -17 76 -19 90 -3 14 -8 34 -11 45 -8 22 -10 30 -17 62
-40 182 -165 518 -274 738 -312 629 -771 1156 -1352 1550 -196 132 -255 166
-485 280 -315 154 -578 245 -940 324 -49 11 -108 22 -130 25 -22 4 -67 11
-100 16 -33 5 -85 12 -115 15 -30 3 -73 8 -95 11 -45 6 -640 15 -646 10z"/>
</g>
</svg>
