<svg xmlns="http://www.w3.org/2000/svg" xmlns:xlink="http://www.w3.org/1999/xlink" width="800" zoomAndPan="magnify" viewBox="0 0 600 599.999999" height="800" preserveAspectRatio="xMidYMid meet" version="1.0"><defs><clipPath id="9773285491"><path d="M 30 21 L 572 21 L 572 565 L 30 565 Z M 30 21 " clip-rule="nonzero"/></clipPath><clipPath id="0d321366d3"><path d="M 593.800781 538.753906 L 62.621094 593.550781 L 6.359375 48.195312 L 537.539062 -6.605469 Z M 593.800781 538.753906 " clip-rule="nonzero"/></clipPath><clipPath id="e19996139b"><path d="M 593.800781 538.753906 L 62.621094 593.550781 L 6.359375 48.195312 L 537.539062 -6.605469 Z M 593.800781 538.753906 " clip-rule="nonzero"/></clipPath></defs><g clip-path="url(#9773285491)"><g clip-path="url(#0d321366d3)"><g clip-path="url(#e19996139b)"><path fill="#393939" d="M 571.164062 332.449219 C 562.199219 393.984375 532.933594 448.566406 490.417969 489.347656 C 447.839844 530.207031 392.082031 557.183594 330.207031 563.566406 C 320.269531 564.589844 310.273438 565.050781 300.152344 564.957031 C 290.175781 564.917969 280.136719 564.242188 270.113281 563.070312 L 271.035156 555.425781 C 280.695312 556.566406 290.449219 557.195312 300.210938 557.257812 C 309.90625 557.328125 319.6875 556.886719 329.414062 555.882812 C 389.597656 549.675781 443.722656 523.4375 485.070312 483.773438 C 526.355469 444.1875 554.851562 391.109375 563.5 331.316406 Z M 211.910156 223.222656 C 221.535156 210.90625 233.453125 200.773438 246.789062 193.34375 C 260.191406 185.90625 275.082031 181.09375 290.585938 179.496094 C 307.707031 177.726562 324.808594 179.882812 340.703125 185.507812 C 356.527344 191.136719 371.140625 200.242188 383.296875 212.449219 L 377.808594 217.929688 C 366.519531 206.558594 352.894531 198.066406 338.109375 192.824219 C 323.324219 187.582031 307.382812 185.597656 291.382812 187.246094 C 276.9375 188.738281 263.007812 193.164062 250.542969 200.078125 C 238.082031 206.988281 226.953125 216.472656 218.019531 227.933594 Z M 304.875 407.78125 C 275.101562 408.429688 247.488281 397.605469 226.644531 379.171875 C 205.796875 360.742188 191.582031 334.785156 188.519531 305.117188 C 187.488281 295.109375 187.800781 285.035156 189.351562 275.191406 C 190.96875 265.335938 193.824219 255.714844 197.933594 246.527344 L 205.027344 249.714844 C 201.132812 258.234375 198.496094 267.195312 197.023438 276.394531 C 195.550781 285.589844 195.234375 294.953125 196.203125 304.324219 C 199.050781 331.949219 212.3125 356.222656 231.742188 373.375 C 251.246094 390.523438 276.9375 400.691406 304.71875 400.035156 Z M 404.570312 241.949219 C 407.699219 248.105469 410.292969 254.605469 412.1875 261.246094 C 414.164062 267.953125 415.507812 274.792969 416.214844 281.628906 C 418.867188 307.351562 412.757812 332.339844 399.886719 353.253906 C 387.085938 374.160156 367.589844 390.914062 343.40625 400.175781 L 340.667969 392.976562 C 363.136719 384.320312 381.394531 368.691406 393.347656 349.226562 C 405.289062 329.691406 411.003906 306.382812 408.535156 282.421875 C 407.863281 275.9375 406.570312 269.589844 404.792969 263.433594 C 403.011719 257.207031 400.609375 251.1875 397.660156 245.367188 Z M 357.710938 422.84375 C 351.085938 425.589844 344.417969 427.917969 337.617188 429.6875 C 330.820312 431.457031 323.824219 432.675781 316.777344 433.402344 C 278.160156 437.386719 241.523438 425.355469 213.535156 402.605469 C 185.625 379.914062 166.296875 346.511719 162.304688 307.824219 C 159.820312 283.722656 163.621094 259.824219 172.859375 238.21875 C 182.097656 216.609375 196.699219 197.300781 215.75 182.441406 L 225.261719 194.566406 C 208.257812 207.859375 195.285156 225.007812 187.082031 244.230469 C 178.882812 263.449219 175.523438 284.738281 177.738281 306.230469 C 181.285156 340.621094 198.460938 370.398438 223.339844 390.625 C 248.214844 410.847656 280.804688 421.589844 315.195312 418.042969 C 321.535156 417.386719 327.757812 416.246094 333.792969 414.699219 C 339.964844 413.0625 345.878906 411.03125 351.679688 408.578125 Z M 287.886719 153.351562 C 326.574219 149.359375 363.214844 161.390625 391.203125 184.144531 C 419.109375 206.832031 438.4375 240.234375 442.429688 278.925781 C 445.082031 304.644531 440.523438 330.1875 429.972656 352.855469 C 419.421875 375.523438 402.804688 395.328125 381.367188 409.859375 L 372.644531 397.085938 C 391.820312 384.140625 406.589844 366.449219 415.980469 346.320312 C 425.371094 326.195312 429.367188 303.488281 426.996094 280.515625 C 423.449219 246.125 406.273438 216.347656 381.398438 196.121094 C 356.519531 175.898438 323.933594 165.15625 289.472656 168.710938 Z M 318.683594 451.867188 C 274.921875 456.382812 233.484375 442.710938 201.847656 417.054688 C 170.207031 391.332031 148.355469 353.488281 143.84375 309.726562 C 139.328125 265.964844 152.992188 224.457031 178.714844 192.816406 C 204.4375 161.175781 242.21875 139.402344 285.984375 134.886719 C 329.816406 130.363281 371.246094 143.96875 402.886719 169.691406 C 434.527344 195.414062 456.378906 233.257812 460.894531 277.019531 C 465.410156 320.78125 451.742188 362.289062 426.019531 393.929688 C 400.289062 425.5 362.515625 447.34375 318.683594 451.867188 Z M 206.707031 411 C 236.792969 435.460938 276.3125 448.476562 317.890625 444.1875 C 359.539062 439.890625 395.496094 419.085938 420.027344 388.992188 C 444.484375 358.90625 457.507812 319.460938 453.210938 277.8125 C 448.914062 236.164062 428.113281 200.207031 398.027344 175.746094 C 367.871094 151.292969 328.421875 138.269531 286.773438 142.566406 C 245.195312 146.855469 209.238281 167.660156 184.710938 197.753906 C 160.25 227.839844 147.226562 267.285156 151.523438 308.933594 C 155.820312 350.582031 176.621094 386.542969 206.707031 411 Z M 484.011719 300.914062 C 482.617188 334.320312 472.132812 365.953125 454.476562 392.917969 C 436.886719 419.875 412.050781 442.164062 382.007812 456.800781 L 378.652344 449.8125 C 407.40625 435.804688 431.132812 414.484375 448.054688 388.667969 C 464.90625 362.855469 474.960938 332.617188 476.292969 300.644531 C 476.640625 292.273438 476.417969 283.894531 475.550781 275.507812 C 470.621094 227.726562 446.703125 186.394531 412.183594 158.332031 C 377.589844 130.207031 332.320312 115.292969 284.46875 120.226562 L 283.679688 112.546875 C 333.640625 107.390625 380.972656 122.949219 417.042969 152.277344 C 453.195312 181.664062 478.078125 224.75 483.234375 274.714844 C 484.128906 283.382812 484.394531 292.1875 484.011719 300.914062 Z M 123.453125 261.191406 C 125.210938 251.324219 127.773438 241.660156 131.085938 232.34375 L 131.214844 232.1875 L 131.589844 231.007812 C 132.253906 229.160156 132.988281 227.304688 133.730469 225.519531 L 134.242188 224.253906 L 134.234375 224.183594 L 134.746094 222.921875 L 134.808594 222.84375 C 135.789062 220.605469 136.765625 218.367188 137.746094 216.128906 L 138.214844 215.15625 L 138.398438 214.851562 L 139.050781 213.574219 L 139.457031 212.675781 L 139.695312 212.226562 L 140.109375 211.398438 L 140.347656 210.949219 L 141 209.667969 L 141.417969 208.914062 L 141.648438 208.390625 L 142.070312 207.636719 L 142.371094 207.105469 L 143.746094 204.542969 L 144.109375 203.9375 L 144.476562 203.328125 L 145.925781 200.828125 L 146.226562 200.296875 L 146.648438 199.542969 L 146.886719 199.089844 L 147.378906 198.328125 L 147.6875 197.867188 L 148.105469 197.113281 L 148.90625 195.890625 L 149.152344 195.511719 L 149.707031 194.667969 L 149.890625 194.367188 L 150.441406 193.523438 L 150.6875 193.144531 L 151.242188 192.304688 L 151.425781 192 L 152.042969 191.082031 L 152.234375 190.847656 L 152.851562 189.929688 L 153.039062 189.695312 L 153.65625 188.777344 L 153.847656 188.542969 L 154.527344 187.546875 L 154.652344 187.394531 L 155.335938 186.398438 L 155.460938 186.242188 L 156.210938 185.238281 L 156.273438 185.160156 L 157.089844 184.078125 L 157.152344 184 L 157.902344 182.996094 L 157.96875 182.921875 L 158.78125 181.839844 L 158.84375 181.761719 L 159.660156 180.679688 L 159.730469 180.671875 L 160.542969 179.59375 L 160.613281 179.585938 L 161.5 178.496094 L 162.382812 177.40625 L 163.269531 176.320312 L 164.152344 175.230469 L 164.222656 175.222656 L 165.046875 174.214844 L 165.179688 174.128906 L 166 173.117188 L 166.0625 173.039062 L 166.964844 172.09375 L 167.019531 171.945312 L 167.855469 171.074219 L 167.980469 170.917969 L 168.816406 170.050781 L 169.78125 169.023438 L 169.898438 168.796875 L 170.742188 168 L 170.933594 167.765625 L 171.707031 166.972656 L 171.894531 166.742188 L 172.667969 165.949219 L 172.929688 165.707031 L 173.707031 164.988281 L 173.898438 164.753906 L 174.671875 163.960938 L 174.929688 163.722656 L 175.710938 163 L 175.902344 162.765625 L 176.675781 161.972656 L 176.933594 161.734375 L 177.714844 161.011719 L 177.972656 160.773438 L 178.753906 160.050781 L 179.015625 159.808594 L 179.800781 159.160156 L 180.125 158.839844 L 180.84375 158.195312 L 181.164062 157.878906 L 181.882812 157.234375 L 182.207031 156.917969 L 182.929688 156.34375 L 183.324219 156.019531 L 183.96875 155.382812 L 184.363281 155.054688 L 185.019531 154.488281 L 185.484375 154.15625 L 186.136719 153.589844 L 186.53125 153.265625 L 187.253906 152.691406 L 187.648438 152.367188 L 188.300781 151.800781 L 188.765625 151.46875 L 189.417969 150.902344 L 189.882812 150.570312 L 190.546875 150.074219 L 191.003906 149.671875 L 191.664062 149.175781 L 192.121094 148.773438 L 192.789062 148.347656 L 193.246094 147.941406 L 193.90625 147.449219 L 194.441406 147.109375 L 195.03125 146.621094 L 195.566406 146.28125 L 196.15625 145.792969 L 197.351562 144.957031 L 197.886719 144.617188 L 198.484375 144.199219 L 199.609375 143.371094 L 200.207031 142.953125 L 200.8125 142.605469 L 201.410156 142.1875 L 202.011719 141.769531 L 202.609375 141.351562 L 203.210938 141.003906 L 203.8125 140.585938 L 204.34375 140.246094 L 205.015625 139.820312 L 205.546875 139.480469 L 206.21875 139.054688 L 206.75 138.714844 L 207.421875 138.289062 L 207.953125 137.949219 L 208.628906 137.597656 L 209.234375 137.25 L 209.902344 136.824219 L 210.445312 136.554688 L 211.113281 136.128906 L 211.648438 135.789062 L 212.394531 135.425781 L 212.929688 135.085938 L 213.605469 134.730469 L 214.140625 134.390625 L 214.886719 134.03125 L 215.421875 133.691406 L 216.167969 133.328125 L 216.636719 133.066406 C 217.917969 132.363281 219.207031 131.734375 220.488281 131.03125 L 221.234375 130.667969 L 221.777344 130.398438 L 222.523438 130.039062 L 223.0625 129.769531 C 225.167969 128.765625 227.414062 127.753906 229.589844 126.746094 L 230.34375 126.453125 L 230.886719 126.183594 C 240.917969 121.945312 251.320312 118.519531 262.175781 116.046875 L 263.882812 123.632812 C 253.929688 125.871094 244.414062 128.917969 235.199219 132.789062 C 233.078125 133.648438 230.96875 134.578125 228.863281 135.578125 L 228.382812 135.773438 L 227.636719 136.132812 L 227.167969 136.394531 L 226.421875 136.757812 L 225.941406 136.949219 L 225.203125 137.382812 L 223.90625 137.941406 L 223.4375 138.207031 L 222.691406 138.566406 L 222.21875 138.828125 L 221.480469 139.261719 L 221 139.453125 L 220.261719 139.886719 L 219.789062 140.148438 L 219.113281 140.503906 L 218.574219 140.773438 L 217.90625 141.199219 L 217.363281 141.46875 L 216.6875 141.820312 L 216.222656 142.152344 L 215.476562 142.515625 L 215.003906 142.777344 L 214.335938 143.203125 L 213.792969 143.472656 L 213.125 143.898438 L 212.664062 144.230469 L 211.988281 144.585938 L 211.453125 144.925781 L 210.855469 145.34375 L 210.3125 145.613281 L 209.644531 146.039062 L 209.179688 146.371094 L 208.503906 146.726562 L 207.976562 147.136719 L 207.371094 147.484375 L 206.835938 147.824219 L 205.703125 148.582031 L 205.105469 149 L 204.570312 149.339844 C 198.183594 153.703125 192.050781 158.464844 186.316406 163.613281 C 178.492188 170.617188 171.3125 178.339844 164.902344 186.621094 L 164.144531 187.554688 L 164.085938 187.703125 L 163.328125 188.632812 L 163.203125 188.789062 L 162.515625 189.714844 L 162.386719 189.871094 C 161.328125 191.332031 160.269531 192.796875 159.214844 194.328125 L 158.589844 195.175781 L 158.40625 195.480469 L 157.855469 196.320312 L 157.671875 196.625 L 157.109375 197.394531 L 156.933594 197.769531 L 156.375 198.539062 L 156.128906 198.921875 L 155.390625 200.066406 L 154.96875 200.820312 L 154.65625 201.210938 L 154.234375 201.964844 L 153.925781 202.425781 L 152.53125 204.777344 L 152.164062 205.382812 L 151.792969 205.921875 L 151.507812 206.589844 L 151.132812 207.128906 L 150.476562 208.335938 L 150.179688 208.9375 L 149.816406 209.542969 C 147.769531 213.171875 145.949219 216.921875 144.203125 220.734375 L 144.085938 220.960938 L 143.625 222.003906 L 143.496094 222.160156 C 141.480469 226.785156 139.613281 231.464844 137.902344 236.269531 C 134.933594 244.765625 132.632812 253.550781 131.070312 262.542969 Z M 352.480469 468.109375 C 347.296875 469.640625 342.082031 470.890625 336.839844 471.859375 C 331.535156 472.90625 326.203125 473.667969 320.988281 474.207031 C 271.09375 479.355469 223.765625 463.796875 187.691406 434.472656 C 151.613281 405.074219 126.65625 361.996094 121.503906 312.03125 L 129.253906 311.230469 C 134.183594 359.011719 158.035156 400.351562 192.550781 428.414062 C 227.148438 456.539062 272.414062 471.453125 320.195312 466.527344 C 325.410156 465.988281 330.53125 465.246094 335.421875 464.3125 C 340.445312 463.296875 345.445312 462.070312 350.363281 460.707031 Z M 104.636719 358.425781 C 102.34375 351.398438 100.390625 344.195312 98.847656 336.804688 C 97.230469 329.421875 96.113281 322.058594 95.359375 314.730469 C 91.097656 273.433594 99.296875 232.773438 117.726562 197.398438 C 136.148438 161.953125 164.667969 131.875 200.964844 111.605469 L 208.484375 125.148438 C 174.882812 143.925781 148.414062 171.796875 131.414062 204.460938 C 114.421875 237.195312 106.765625 274.808594 110.71875 313.144531 C 111.441406 320.121094 112.503906 326.992188 113.972656 333.605469 C 115.375 340.296875 117.199219 346.945312 119.382812 353.628906 Z M 273.660156 87.226562 L 280.972656 86.332031 C 338.195312 80.429688 392.3125 98.277344 433.671875 131.898438 C 475.023438 165.453125 503.480469 214.863281 509.378906 272.015625 C 515.273438 329.171875 497.503906 383.351562 463.871094 424.640625 C 430.25 465.996094 380.914062 494.519531 323.691406 500.421875 C 282.324219 504.691406 241.652344 496.351562 206.207031 477.929688 C 170.753906 459.4375 140.667969 430.847656 120.457031 394.402344 L 133.933594 386.957031 C 152.648438 420.636719 180.527344 447.175781 213.269531 464.238281 C 246.082031 481.292969 283.761719 488.945312 322.101562 484.988281 C 375.023438 479.53125 420.734375 453.164062 451.828125 414.914062 C 482.925781 376.664062 499.476562 326.527344 494.015625 273.601562 C 488.554688 220.679688 462.117188 174.976562 423.871094 143.878906 C 385.621094 112.785156 335.488281 96.304688 282.566406 101.765625 L 279.253906 102.105469 L 275.667969 102.546875 Z M 523.886719 357.410156 C 510.808594 402.5625 484.699219 441.507812 450.210938 470.347656 C 415.726562 499.191406 372.789062 517.933594 325.996094 522.761719 C 307.390625 524.679688 288.6875 524.261719 270.191406 521.683594 C 251.761719 519.097656 233.601562 514.273438 216.210938 507.238281 L 221.996094 492.894531 C 238.199219 499.484375 255.113281 503.9375 272.3125 506.363281 C 289.445312 508.796875 307 509.125 324.40625 507.328125 C 368.027344 502.828125 408.097656 485.304688 440.292969 458.410156 C 472.488281 431.515625 496.878906 395.238281 508.992188 353.179688 Z M 156.363281 471.816406 C 132.792969 452.527344 113.558594 429.015625 99.375 402.699219 C 85.1875 376.316406 76.136719 347.265625 73.019531 317.035156 C 69.484375 282.785156 73.71875 248.589844 84.898438 216.808594 C 96.015625 185.109375 114.148438 155.816406 138.390625 131.238281 L 149.414062 142.136719 C 126.773438 164.984375 109.863281 192.296875 99.460938 221.929688 C 89.046875 251.496094 85.082031 283.453125 88.382812 315.449219 C 91.304688 343.777344 99.796875 370.890625 112.9375 395.390625 C 126.148438 419.878906 144.15625 441.882812 166.171875 459.910156 Z M 161.703125 110.742188 C 178.65625 97.671875 197.292969 87.058594 216.921875 79.195312 C 236.691406 71.3125 257.457031 66.179688 278.667969 63.992188 C 342.023438 57.457031 402.039062 77.261719 447.824219 114.414062 C 493.621094 151.710938 525.183594 206.359375 531.71875 269.714844 L 532.597656 280.304688 L 517.160156 281.1875 L 516.792969 276.238281 L 516.355469 271.296875 C 510.261719 212.242188 480.777344 161.15625 438.027344 126.464844 C 395.347656 91.769531 339.386719 73.324219 280.261719 79.425781 C 260.386719 81.476562 241.011719 86.253906 222.605469 93.5625 C 204.207031 100.945312 186.847656 110.785156 171.082031 122.953125 Z M 50.152344 272.8125 C 55.144531 212.117188 81.40625 157.414062 121.546875 116.382812 C 161.753906 75.339844 215.828125 47.898438 276.363281 41.652344 C 309.910156 38.191406 343.4375 41.5 375.121094 51.050781 C 406.796875 60.53125 436.621094 76.257812 462.6875 97.640625 L 452.953125 109.613281 C 428.449219 89.5625 400.433594 74.792969 370.734375 65.820312 C 340.96875 56.921875 309.527344 53.828125 277.957031 57.085938 C 221.015625 62.960938 170.253906 88.707031 132.5625 127.210938 C 94.871094 165.710938 70.253906 217.039062 65.59375 274.070312 Z M 504.089844 140.660156 C 518.027344 159.09375 529.371094 179.289062 537.761719 200.574219 C 546.167969 222 551.6875 244.433594 554.058594 267.410156 C 561.226562 336.894531 539.527344 402.734375 498.707031 453.023438 C 457.878906 503.246094 397.855469 537.925781 328.300781 545.101562 C 258.816406 552.269531 192.976562 530.574219 142.757812 489.746094 C 92.527344 448.847656 57.847656 388.824219 50.679688 319.339844 L 66.042969 317.753906 C 72.773438 383.011719 105.363281 439.332031 152.480469 477.703125 C 199.671875 516.066406 261.523438 536.394531 326.710938 529.667969 C 391.964844 522.9375 448.367188 490.410156 486.730469 443.21875 C 525.023438 396.039062 545.425781 334.25 538.695312 268.992188 C 536.460938 247.359375 531.292969 226.242188 523.390625 206.257812 C 515.480469 186.207031 504.90625 167.214844 491.796875 149.90625 Z M 202.019531 545.738281 C 160.957031 529.460938 125.175781 503.667969 97.039062 471.171875 C 68.980469 438.742188 48.5625 399.609375 38.21875 356.660156 L 45.730469 354.890625 C 55.734375 396.660156 75.605469 434.636719 102.929688 466.148438 C 130.183594 497.664062 164.960938 522.710938 204.84375 538.609375 Z M 30.832031 286.417969 C 32.617188 218.144531 59.59375 155.820312 103.03125 108.820312 C 146.546875 61.882812 206.59375 30.191406 274.460938 23.1875 C 337.460938 16.6875 398.480469 32.402344 448.886719 64.664062 C 499.222656 96.933594 539.019531 145.816406 559.441406 205.671875 L 552.144531 208.136719 C 532.257812 150.003906 493.671875 102.492188 444.710938 71.148438 C 395.753906 39.804688 336.421875 24.558594 275.25 30.871094 C 209.289062 37.675781 151.003906 68.472656 108.707031 114.144531 C 66.476562 159.738281 40.246094 220.277344 38.535156 286.546875 Z M 30.832031 286.417969 " fill-opacity="1" fill-rule="nonzero"/></g></g></g></svg>